<svg width="12" height="25" viewBox="0 0 12 25" fill="none" xmlns="http://www.w3.org/2000/svg">
<path fill-rule="evenodd" clip-rule="evenodd" d="M11.7482 0.771157C11.828 0.856893 11.8914 0.958743 11.9346 1.07088C11.9778 1.18301 12 1.30322 12 1.42462C12 1.54602 11.9778 1.66623 11.9346 1.77836C11.8914 1.89049 11.828 1.99234 11.7482 2.07808L2.07015 12.5002L11.7482 22.9224C11.9092 23.0957 11.9995 23.3308 11.9995 23.5759C11.9995 23.821 11.9092 24.056 11.7482 24.2293C11.5873 24.4026 11.3691 24.5 11.1415 24.5C10.914 24.5 10.6957 24.4026 10.5348 24.2293L0.251753 13.1537C0.171951 13.068 0.108636 12.9661 0.0654361 12.854C0.0222361 12.7419 0 12.6216 0 12.5002C0 12.3788 0.0222361 12.2586 0.0654361 12.1465C0.108636 12.0344 0.171951 11.9325 0.251753 11.8468L10.5348 0.771157C10.6144 0.685204 10.709 0.61701 10.8131 0.57048C10.9172 0.523951 11.0288 0.5 11.1415 0.5C11.2543 0.5 11.3659 0.523951 11.47 0.57048C11.5741 0.61701 11.6686 0.685204 11.7482 0.771157Z" fill="#525252"/>
</svg>
