<svg width="64" height="65" viewBox="0 0 64 65" fill="none" xmlns="http://www.w3.org/2000/svg">
<g clip-path="url(#clip0_10_1383)">
<path d="M64 32.5C64 40.9869 60.6286 49.1263 54.6274 55.1274C48.6263 61.1286 40.4869 64.5 32 64.5C23.5131 64.5 15.3737 61.1286 9.37258 55.1274C3.37142 49.1263 0 40.9869 0 32.5C0 24.0131 3.37142 15.8737 9.37258 9.87258C15.3737 3.87142 23.5131 0.5 32 0.5C40.4869 0.5 48.6263 3.87142 54.6274 9.87258C60.6286 15.8737 64 24.0131 64 32.5ZM48.12 20.38C47.8343 20.0953 47.4941 19.8711 47.1197 19.7209C46.7454 19.5706 46.3446 19.4974 45.9413 19.5056C45.538 19.5139 45.1405 19.6033 44.7726 19.7687C44.4047 19.934 44.0739 20.1719 43.8 20.468L29.908 38.168L21.536 29.792C20.9673 29.2621 20.2151 28.9736 19.4379 28.9873C18.6607 29.001 17.9192 29.3159 17.3695 29.8655C16.8199 30.4152 16.505 31.1567 16.4913 31.9339C16.4776 32.7111 16.7661 33.4633 17.296 34.032L27.88 44.62C28.1651 44.9046 28.5047 45.1289 28.8783 45.2794C29.252 45.43 29.6522 45.5037 30.055 45.4962C30.4578 45.4888 30.8549 45.4002 31.2228 45.236C31.5906 45.0717 31.9216 44.835 32.196 44.54L48.164 24.58C48.7084 24.014 49.0091 23.2571 49.0016 22.4718C48.9941 21.6866 48.6791 20.9355 48.124 20.38H48.12Z" fill="#1ABC9C"/>
</g>
<defs>
<clipPath id="clip0_10_1383">
<rect width="64" height="64" fill="white" transform="translate(0 0.5)"/>
</clipPath>
</defs>
</svg>
