<svg width="5" height="20" viewBox="0 0 5 20" fill="none" xmlns="http://www.w3.org/2000/svg">
<path d="M4.75 17.5C4.75 18.0967 4.51295 18.669 4.09099 19.091C3.66903 19.5129 3.09674 19.75 2.5 19.75C1.90326 19.75 1.33097 19.5129 0.909009 19.091C0.487053 18.669 0.25 18.0967 0.25 17.5C0.25 16.9033 0.487053 16.331 0.909009 15.909C1.33097 15.4871 1.90326 15.25 2.5 15.25C3.09674 15.25 3.66903 15.4871 4.09099 15.909C4.51295 16.331 4.75 16.9033 4.75 17.5ZM4.75 10C4.75 10.5967 4.51295 11.169 4.09099 11.591C3.66903 12.0129 3.09674 12.25 2.5 12.25C1.90326 12.25 1.33097 12.0129 0.909009 11.591C0.487053 11.169 0.25 10.5967 0.25 10C0.25 9.40326 0.487053 8.83097 0.909009 8.40901C1.33097 7.98705 1.90326 7.75 2.5 7.75C3.09674 7.75 3.66903 7.98705 4.09099 8.40901C4.51295 8.83097 4.75 9.40326 4.75 10ZM4.75 2.5C4.75 3.09674 4.51295 3.66903 4.09099 4.09099C3.66903 4.51295 3.09674 4.75 2.5 4.75C1.90326 4.75 1.33097 4.51295 0.909009 4.09099C0.487053 3.66903 0.25 3.09674 0.25 2.5C0.25 1.90326 0.487053 1.33097 0.909009 0.90901C1.33097 0.487053 1.90326 0.25 2.5 0.25C3.09674 0.25 3.66903 0.487053 4.09099 0.90901C4.51295 1.33097 4.75 1.90326 4.75 2.5Z" fill="#2C3E50"/>
</svg>
