<svg width="336" height="37" viewBox="0 0 336 37" fill="none" xmlns="http://www.w3.org/2000/svg">
    <line x1="18" y1="17.5" x2="318" y2="17.5" stroke="#1ABC9C" stroke-width="2"/>
    <circle cx="18" cy="18.5" r="17" fill="#1ABC9C" stroke="#1ABC9C" stroke-width="2"/>
    <path d="M19.7656 12.6875V24H17.4062V14.9219H17.3438L14.75 16.5469V14.4688L17.5469 12.6875H19.7656Z" fill="white"/>
    <circle cx="118" cy="18.5" r="17" fill="#1ABC9C" stroke="#1ABC9C" stroke-width="2"/>
    <path d="M113.891 24L113.875 22.2969L117.938 18.5625C118.992 17.5547 119.562 16.9297 119.562 16.0312C119.562 15.0234 118.805 14.3984 117.766 14.4062C116.703 14.3984 116.008 15.0703 116.016 16.1562H113.781C113.773 13.9453 115.414 12.5312 117.797 12.5312C120.219 12.5312 121.828 13.9141 121.828 15.875C121.828 17.1641 121.203 18.2188 118.875 20.3281L117.156 22V22.0625H121.984V24H113.891Z" fill="white"/>
    <circle cx="218" cy="18.5" r="17" fill="#1ABC9C" stroke="#1ABC9C" stroke-width="2"/>
    <path d="M217.969 24.1562C215.484 24.1562 213.703 22.7891 213.656 20.8125H216.031C216.07 21.6562 216.891 22.2109 217.984 22.2188C219.109 22.2109 219.914 21.5859 219.906 20.6719C219.914 19.75 219.094 19.1016 217.766 19.0938H216.719V17.3594H217.766C218.883 17.3594 219.664 16.75 219.656 15.8594C219.664 14.9922 219 14.3984 218 14.4062C217 14.3984 216.18 14.9609 216.141 15.8281H213.891C213.93 13.8828 215.68 12.5312 218 12.5312C220.359 12.5312 221.93 13.9297 221.922 15.7188C221.93 16.9844 221.047 17.8828 219.781 18.1094V18.2031C221.445 18.4062 222.359 19.4141 222.344 20.8281C222.359 22.7656 220.523 24.1562 217.969 24.1562Z" fill="white"/>
    <circle cx="318" cy="18.5" r="17" fill="#FAFAFA" stroke="#1ABC9C" stroke-width="2"/>
    <path d="M313.203 22V20.1406L317.984 12.6875H320.938V20.1094H322.375V22H320.938V24H318.703V22H313.203ZM315.578 20.1094H318.734V15.2656H318.625L315.578 20.0156V20.1094Z" fill="#2C3E50"/>
    </svg>
    