<svg width="24" height="24" viewBox="0 0 24 24" fill="none" xmlns="http://www.w3.org/2000/svg">
<path d="M23.0306 3.9693L20.0306 0.969304C19.8899 0.828573 19.699 0.749512 19.5 0.749512C19.301 0.749512 19.1101 0.828573 18.9694 0.969304C18.8286 1.11003 18.7496 1.30091 18.7496 1.49993C18.7496 1.69895 18.8286 1.88982 18.9694 2.03055L19.1081 2.16837L13.9359 6.04774L10.3528 6.76493C10.2077 6.79399 10.0744 6.86506 9.96937 6.9693L2.15624 14.7806C1.73432 15.2025 1.49728 15.7748 1.49728 16.3715C1.49728 16.9682 1.73432 17.5405 2.15624 17.9624L6.03749 21.8437C6.45944 22.2656 7.03172 22.5026 7.62843 22.5026C8.22514 22.5026 8.79741 22.2656 9.21937 21.8437L17.0306 14.0334C17.1351 13.9285 17.2062 13.7951 17.235 13.6499L17.9522 10.0668L21.8316 4.89462L21.9694 5.03337C22.039 5.10305 22.1218 5.15832 22.2128 5.19604C22.3039 5.23375 22.4014 5.25316 22.5 5.25316C22.5985 5.25316 22.6961 5.23375 22.7872 5.19604C22.8782 5.15832 22.9609 5.10305 23.0306 5.03337C23.1003 4.96368 23.1556 4.88096 23.1933 4.78991C23.231 4.69887 23.2504 4.60129 23.2504 4.50274C23.2504 4.40419 23.231 4.30661 23.1933 4.21557C23.1556 4.12452 23.1003 4.0418 23.0306 3.97212V3.9693ZM7.62843 20.9999C7.53002 21.0002 7.43254 20.9809 7.34162 20.9433C7.2507 20.9056 7.16815 20.8503 7.09874 20.7806L3.21937 16.9012C3.07882 16.7605 2.99987 16.5698 2.99987 16.371C2.99987 16.1722 3.07882 15.9815 3.21937 15.8409L3.74999 15.3102L8.68968 20.2499L8.15624 20.7806C8.01616 20.9205 7.82643 20.9993 7.62843 20.9999ZM16.65 9.29993C16.5827 9.3894 16.5366 9.49292 16.515 9.60274L15.8091 13.1306L15 13.9396L10.0603 8.99993L10.8694 8.19087L14.3972 7.48493C14.507 7.46333 14.6105 7.41718 14.7 7.34993L20.1797 3.23993L20.76 3.82024L16.65 9.29993Z" fill="white"/>
<path fill-rule="evenodd" clip-rule="evenodd" d="M3.05991 2.70071C3.51755 2.24307 4.25954 2.24307 4.71719 2.70071L21.6878 19.6713C22.1454 20.1289 22.1454 20.8709 21.6878 21.3286C21.2301 21.7862 20.4881 21.7862 20.0305 21.3286L3.05991 4.35799C2.60226 3.90035 2.60226 3.15836 3.05991 2.70071Z" fill="#E74C3C"/>
</svg>
