<svg width="115" height="29" viewBox="0 0 115 29" fill="none" xmlns="http://www.w3.org/2000/svg">
    <path d="M23.0306 6.46979L20.0306 3.46979C19.8899 3.32906 19.699 3.25 19.5 3.25C19.301 3.25 19.1101 3.32906 18.9694 3.46979C18.8287 3.61052 18.7496 3.80139 18.7496 4.00042C18.7496 4.19944 18.8287 4.39031 18.9694 4.53104L19.1081 4.66885L13.936 8.54823L10.3528 9.26542C10.2078 9.29448 10.0744 9.36555 9.9694 9.46979L2.15627 17.281C1.73435 17.703 1.49731 18.2753 1.49731 18.872C1.49731 19.4687 1.73435 20.041 2.15627 20.4629L6.03752 24.3442C6.45947 24.7661 7.03175 25.0031 7.62846 25.0031C8.22517 25.0031 8.79744 24.7661 9.2194 24.3442L17.0306 16.5339C17.1351 16.429 17.2062 16.2956 17.235 16.1504L17.9522 12.5673L21.8316 7.3951L21.9694 7.53385C22.0391 7.60354 22.1218 7.65881 22.2128 7.69652C22.3039 7.73424 22.4015 7.75365 22.5 7.75365C22.5986 7.75365 22.6961 7.73424 22.7872 7.69652C22.8782 7.65881 22.961 7.60354 23.0306 7.53385C23.1003 7.46417 23.1556 7.38145 23.1933 7.2904C23.231 7.19936 23.2504 7.10178 23.2504 7.00323C23.2504 6.90468 23.231 6.8071 23.1933 6.71606C23.1556 6.62501 23.1003 6.54229 23.0306 6.4726V6.46979ZM7.62846 23.5004C7.53005 23.5007 7.43257 23.4814 7.34165 23.4438C7.25073 23.4061 7.16818 23.3508 7.09877 23.281L3.2194 19.4017C3.07885 19.261 2.9999 19.0703 2.9999 18.8715C2.9999 18.6727 3.07885 18.482 3.2194 18.3414L3.75002 17.8107L8.68971 22.7504L8.15627 23.281C8.01619 23.421 7.82646 23.4998 7.62846 23.5004ZM16.65 11.8004C16.5828 11.8899 16.5366 11.9934 16.515 12.1032L15.8091 15.631L15 16.4401L10.0603 11.5004L10.8694 10.6914L14.3972 9.98542C14.507 9.96382 14.6105 9.91767 14.7 9.85042L20.1797 5.74042L20.76 6.32073L16.65 11.8004Z" fill="#525252"/>
    <path fill-rule="evenodd" clip-rule="evenodd" d="M3.05991 5.20071C3.51755 4.74307 4.25954 4.74307 4.71719 5.20071L21.6878 22.1713C22.1454 22.6289 22.1454 23.3709 21.6878 23.8286C21.2301 24.2862 20.4881 24.2862 20.0305 23.8286L3.05991 6.85799C2.60226 6.40035 2.60226 5.65836 3.05991 5.20071Z" fill="#E74C3C"/>
    <path d="M42.8984 5.35156C42.8867 8.25781 47.4922 10.1797 50.6094 10.5547L50.1641 11.4688C47.2461 11.0352 43.5312 9.54688 42.3242 7.0625C41.1172 9.54688 37.3906 11.0352 34.4844 11.4688L34.0859 10.5547C37.168 10.1797 41.75 8.25781 41.7734 5.35156V4.32031H42.8984V5.35156ZM32.9844 14.0938V13.1562H51.6641V14.0938H42.875V16.6016H49.1797V20.8438H36.4766V23.5156H49.8594V24.4531H35.3984V19.9297H48.1016V17.5625H35.3281V16.6016H41.7734V14.0938H32.9844ZM58.0203 16.2734V19.2031H62.7547V16.2734H63.8094V24.4297H56.9188V16.2734H58.0203ZM54.8797 9.875C54.8563 7.08594 57.0125 5.23438 60.1063 5.21094C62.9539 5.23438 65.0164 6.85156 65.2977 9.33594H70.2078V4.22656H71.3094V15.1016H70.2078V10.3203H65.3094C65.075 12.8516 62.9891 14.5156 60.1063 14.5156C57.0125 14.5156 54.8563 12.6523 54.8797 9.875ZM55.9578 9.875C55.9461 11.9727 57.657 13.5547 60.1063 13.5547C62.5086 13.5547 64.2313 11.9727 64.2547 9.875C64.2313 7.76562 62.5086 6.19531 60.1063 6.19531C57.657 6.19531 55.9461 7.76562 55.9578 9.875ZM58.0203 23.4922H62.7547V20.1172H58.0203V23.4922ZM64.4422 23.7031C66.9148 22.6602 68.3914 20.2227 68.4031 18.0312V16.1562H69.4813V18.0312C69.4695 20.2578 70.9695 22.6953 73.4656 23.7031L72.8328 24.5938C70.8875 23.7148 69.5398 22.0625 68.9422 20.2227C68.3328 22.0508 66.9734 23.7148 65.0516 24.5938L64.4422 23.7031ZM89.3703 10.8359V11.7969H75.5187V4.97656H76.6203V10.8359H89.3703ZM72.8234 15.9453V14.9844H91.5969V15.9453H72.8234ZM75.425 24.2188V18.2891H76.5266V23.2344H89.5109V24.2188H75.425ZM113.656 12.7109V13.6719H110.047V24.7578H108.945V4.22656H110.047V12.7109H113.656ZM95.3281 19.4141V6.28906H96.4297V18.4531H96.875C100.004 18.4531 103.086 18.2188 106.578 17.4922L106.766 18.4766C103.145 19.1914 100.062 19.4141 96.875 19.4141H95.3281Z" fill="#525252"/>
    </svg>
    