<svg width="115" height="30" viewBox="0 0 115 30" fill="none" xmlns="http://www.w3.org/2000/svg">
    <path d="M23.0306 6.96979L20.0306 3.96979C19.8899 3.82906 19.699 3.75 19.5 3.75C19.301 3.75 19.1101 3.82906 18.9694 3.96979C18.8287 4.11052 18.7496 4.30139 18.7496 4.50042C18.7496 4.69944 18.8287 4.89031 18.9694 5.03104L19.1081 5.16885L13.936 9.04823L10.3528 9.76542C10.2078 9.79448 10.0744 9.86555 9.9694 9.96979L2.15627 17.781C1.73435 18.203 1.49731 18.7753 1.49731 19.372C1.49731 19.9687 1.73435 20.541 2.15627 20.9629L6.03752 24.8442C6.45947 25.2661 7.03175 25.5031 7.62846 25.5031C8.22517 25.5031 8.79744 25.2661 9.2194 24.8442L17.0306 17.0339C17.1351 16.929 17.2062 16.7956 17.235 16.6504L17.9522 13.0673L21.8316 7.8951L21.9694 8.03385C22.0391 8.10354 22.1218 8.15881 22.2128 8.19652C22.3039 8.23424 22.4015 8.25365 22.5 8.25365C22.5986 8.25365 22.6961 8.23424 22.7872 8.19652C22.8782 8.15881 22.961 8.10354 23.0306 8.03385C23.1003 7.96417 23.1556 7.88145 23.1933 7.7904C23.231 7.69936 23.2504 7.60178 23.2504 7.50323C23.2504 7.40468 23.231 7.3071 23.1933 7.21606C23.1556 7.12501 23.1003 7.04229 23.0306 6.9726V6.96979ZM7.62846 24.0004C7.53005 24.0007 7.43257 23.9814 7.34165 23.9438C7.25073 23.9061 7.16818 23.8508 7.09877 23.781L3.2194 19.9017C3.07885 19.761 2.9999 19.5703 2.9999 19.3715C2.9999 19.1727 3.07885 18.982 3.2194 18.8414L3.75002 18.3107L8.68971 23.2504L8.15627 23.781C8.01619 23.921 7.82646 23.9998 7.62846 24.0004ZM16.65 12.3004C16.5828 12.3899 16.5366 12.4934 16.515 12.6032L15.8091 16.131L15 16.9401L10.0603 12.0004L10.8694 11.1914L14.3972 10.4854C14.507 10.4638 14.6105 10.4177 14.7 10.3504L20.1797 6.24042L20.76 6.82073L16.65 12.3004Z" fill="white"/>
    <path fill-rule="evenodd" clip-rule="evenodd" d="M3.05991 5.70071C3.51755 5.24307 4.25954 5.24307 4.71719 5.70071L21.6878 22.6713C22.1454 23.1289 22.1454 23.8709 21.6878 24.3286C21.2301 24.7862 20.4881 24.7862 20.0305 24.3286L3.05991 7.35799C2.60226 6.90035 2.60226 6.15836 3.05991 5.70071Z" fill="#E74C3C"/>
    <path d="M42.8984 5.85156C42.8867 8.75781 47.4922 10.6797 50.6094 11.0547L50.1641 11.9688C47.2461 11.5352 43.5312 10.0469 42.3242 7.5625C41.1172 10.0469 37.3906 11.5352 34.4844 11.9688L34.0859 11.0547C37.168 10.6797 41.75 8.75781 41.7734 5.85156V4.82031H42.8984V5.85156ZM32.9844 14.5938V13.6562H51.6641V14.5938H42.875V17.1016H49.1797V21.3438H36.4766V24.0156H49.8594V24.9531H35.3984V20.4297H48.1016V18.0625H35.3281V17.1016H41.7734V14.5938H32.9844ZM58.0203 16.7734V19.7031H62.7547V16.7734H63.8094V24.9297H56.9188V16.7734H58.0203ZM54.8797 10.375C54.8563 7.58594 57.0125 5.73438 60.1063 5.71094C62.9539 5.73438 65.0164 7.35156 65.2977 9.83594H70.2078V4.72656H71.3094V15.6016H70.2078V10.8203H65.3094C65.075 13.3516 62.9891 15.0156 60.1063 15.0156C57.0125 15.0156 54.8563 13.1523 54.8797 10.375ZM55.9578 10.375C55.9461 12.4727 57.657 14.0547 60.1063 14.0547C62.5086 14.0547 64.2313 12.4727 64.2547 10.375C64.2313 8.26562 62.5086 6.69531 60.1063 6.69531C57.657 6.69531 55.9461 8.26562 55.9578 10.375ZM58.0203 23.9922H62.7547V20.6172H58.0203V23.9922ZM64.4422 24.2031C66.9148 23.1602 68.3914 20.7227 68.4031 18.5312V16.6562H69.4813V18.5312C69.4695 20.7578 70.9695 23.1953 73.4656 24.2031L72.8328 25.0938C70.8875 24.2148 69.5398 22.5625 68.9422 20.7227C68.3328 22.5508 66.9734 24.2148 65.0516 25.0938L64.4422 24.2031ZM89.3703 11.3359V12.2969H75.5187V5.47656H76.6203V11.3359H89.3703ZM72.8234 16.4453V15.4844H91.5969V16.4453H72.8234ZM75.425 24.7188V18.7891H76.5266V23.7344H89.5109V24.7188H75.425ZM113.656 13.2109V14.1719H110.047V25.2578H108.945V4.72656H110.047V13.2109H113.656ZM95.3281 19.9141V6.78906H96.4297V18.9531H96.875C100.004 18.9531 103.086 18.7188 106.578 17.9922L106.766 18.9766C103.145 19.6914 100.062 19.9141 96.875 19.9141H95.3281Z" fill="white"/>
    </svg>
    