<svg width="39" height="49" viewBox="0 0 39 49" fill="none" xmlns="http://www.w3.org/2000/svg">
<path d="M29.4318 8.5819C26.7649 5.50182 23.7632 2.72829 20.4824 0.312584C20.192 0.109135 19.846 0 19.4914 0C19.1368 0 18.7908 0.109135 18.5003 0.312584C15.2255 2.7293 12.2297 5.50279 9.56818 8.5819C3.63284 15.3982 0.5 22.5836 0.5 29.3632C0.5 34.4023 2.50178 39.235 6.06497 42.7982C9.62816 46.3614 14.4609 48.3632 19.5 48.3632C24.5391 48.3632 29.3718 46.3614 32.935 42.7982C36.4982 39.235 38.5 34.4023 38.5 29.3632C38.5 22.5836 35.3672 15.3982 29.4318 8.5819Z" fill="#F1C40F"/>
</svg>
